<svg width="75" height="75" viewBox="0 0 75 75" fill="none" xmlns="http://www.w3.org/2000/svg">
<path d="M37.4953 0.780609C16.7906 0.780609 0 17.6369 0 38.4306C0 55.0619 10.7438 69.1712 25.65 74.154C27.525 74.5009 28.2094 73.3384 28.2094 72.34C28.2094 71.4447 28.1766 69.0775 28.1578 65.9369C17.7281 68.2103 15.525 60.8884 15.525 60.8884C13.8234 56.5384 11.3625 55.3806 11.3625 55.3806C7.95469 53.0462 11.6156 53.0931 11.6156 53.0931C15.3797 53.3603 17.3578 56.9744 17.3578 56.9744C20.7047 62.7259 26.1375 61.0665 28.275 60.1009C28.6125 57.6681 29.5828 56.0087 30.6562 55.0665C22.3312 54.115 13.575 50.8853 13.575 36.4619C13.575 32.3509 15.0375 28.99 17.4375 26.3556C17.0484 25.404 15.7641 21.5744 17.8031 16.3947C17.8031 16.3947 20.9531 15.3822 28.1156 20.2525C31.1063 19.4181 34.3125 19.0009 37.5047 18.9869C40.6875 19.0056 43.8984 19.4181 46.8937 20.2572C54.0516 15.3869 57.1969 16.3994 57.1969 16.3994C59.2406 21.5837 57.9562 25.4087 57.5719 26.3603C59.9766 28.9947 61.425 32.3556 61.425 36.4665C61.425 50.9275 52.6594 54.1103 44.3062 55.0431C45.6516 56.2056 46.8516 58.5025 46.8516 62.0134C46.8516 67.0478 46.8047 71.1072 46.8047 72.34C46.8047 73.3478 47.4797 74.5197 49.3828 74.1494C64.2656 69.1619 75 55.0572 75 38.4306C75 17.6369 58.2094 0.780609 37.4953 0.780609Z" fill="black"/>
</svg>
