<svg width="75" height="75" viewBox="0 0 75 75" fill="none" xmlns="http://www.w3.org/2000/svg">
<path d="M16.7719 23.4375H0V75H16.7719V23.4375Z" fill="#0759A5"/>
<path d="M62.4563 24.0422C62.2781 23.9859 62.1094 23.925 61.9219 23.8734C61.6969 23.8219 61.4719 23.7797 61.2422 23.7422C60.3516 23.5641 59.3766 23.4375 58.2328 23.4375C48.4547 23.4375 42.2531 30.5484 40.2094 33.2953V23.4375H23.4375V75H40.2094V46.875C40.2094 46.875 52.8844 29.2219 58.2328 42.1875C58.2328 53.7609 58.2328 75 58.2328 75H75V40.2047C75 32.4141 69.6609 25.9219 62.4563 24.0422Z" fill="#0759A5"/>
<path d="M8.20312 16.4062C12.7336 16.4062 16.4062 12.7336 16.4062 8.20312C16.4062 3.67266 12.7336 0 8.20312 0C3.67266 0 0 3.67266 0 8.20312C0 12.7336 3.67266 16.4062 8.20312 16.4062Z" fill="#0759A5"/>
</svg>
