<svg width="212" height="204" viewBox="0 0 212 204" fill="none" xmlns="http://www.w3.org/2000/svg">
<path d="M76 132.5C79.1667 123.333 87.5 106.5 106 92.5M106 92.5C120.995 81.1527 134.333 77 139 75M106 92.5C102 85.8334 88.3 70.5 83.5 66.5M41.5 66.5C43 61.8334 46.5 49 58.5 42C68.4661 36.1865 78 35 83.5 36M10.5 69.5C13.6667 58.5 18.5 39 44.5 23C70.5 7.00001 83.5 11 93 11" stroke="#E2831D" stroke-width="20" stroke-linecap="round" stroke-linejoin="round"/>
<path d="M160 193C135.166 198.691 96.6666 175.834 80.5 160.5C72.8333 153 57.8 139.8 49 123C38 102 60.5001 68.4548 83.5 58.0001C106.5 47.5454 122.194 48.4367 136 55.5002C157.5 66.5002 196 112.5 200.5 138C205 163.5 184 187.5 160 193Z" stroke="#E2831D" stroke-width="20" stroke-linecap="round" stroke-linejoin="round"/>
</svg>
